<svg xmlns="http://www.w3.org/2000/svg" version="1.1" viewBox="1777 837 1407 1351"><path d="M 2470.622 853.750 C 2465.897 862.962, 2458.162 877.925, 2453.432 887 C 2448.703 896.075, 2437.386 917.900, 2428.283 935.500 C 2419.180 953.100, 2408.918 972.900, 2405.478 979.500 C 2395.436 998.766, 2374.379 1039.283, 2366.238 1055 C 2349.192 1087.910, 2344.389 1097.187, 2337.245 1111 C 2333.120 1118.975, 2327.837 1129.100, 2325.504 1133.500 C 2323.171 1137.900, 2316.417 1150.950, 2310.494 1162.500 C 2304.572 1174.050, 2298.276 1186.200, 2296.504 1189.500 C 2294.732 1192.800, 2288.437 1204.950, 2282.514 1216.500 C 2276.591 1228.050, 2270.281 1240.200, 2268.490 1243.500 C 2266.700 1246.800, 2248.933 1281, 2229.008 1319.500 C 2209.082 1358, 2190.188 1394.450, 2187.021 1400.500 C 2183.853 1406.550, 2177.543 1418.700, 2172.998 1427.500 C 2168.453 1436.300, 2162.375 1448, 2159.490 1453.500 C 2153.801 1464.348, 2131.906 1506.555, 2118.248 1533 C 2113.561 1542.075, 2107.148 1554.450, 2103.998 1560.500 C 2098.610 1570.845, 2094.790 1578.204, 2077.002 1612.500 C 2068.301 1629.277, 2059.572 1646.060, 2050.737 1663 C 2042.436 1678.917, 1991.490 1777.225, 1980.258 1799 C 1975.577 1808.075, 1969.835 1819.100, 1967.499 1823.500 C 1965.162 1827.900, 1958.406 1840.950, 1952.485 1852.500 C 1946.564 1864.050, 1940.940 1874.850, 1939.986 1876.500 C 1939.032 1878.150, 1933.185 1889.400, 1926.991 1901.500 C 1920.797 1913.600, 1914.495 1925.750, 1912.987 1928.500 C 1911.478 1931.250, 1906.072 1941.600, 1900.974 1951.500 C 1895.875 1961.400, 1882.716 1986.825, 1871.732 2008 C 1860.747 2029.175, 1848.381 2053.025, 1844.252 2061 C 1840.123 2068.975, 1833.939 2080.900, 1830.508 2087.500 C 1827.078 2094.100, 1820.553 2106.700, 1816.008 2115.500 C 1811.464 2124.300, 1805.835 2135.100, 1803.500 2139.500 C 1791.660 2161.806, 1778.851 2187.184, 1779.237 2187.570 C 1779.476 2187.810, 1857.567 2187.892, 1952.773 2187.753 L 2125.873 2187.500 2119.389 2178 C 2094.663 2141.773, 2073.245 2096.373, 2061.391 2055.062 C 2049.422 2013.347, 2044.642 1978.633, 2044.582 1933 C 2044.543 1902.929, 2045.410 1889.931, 2049.116 1865 C 2062.898 1772.298, 2104.945 1688.089, 2169.974 1622.953 C 2185.407 1607.494, 2189.785 1603.509, 2203.039 1592.851 C 2270.963 1538.237, 2356.763 1505.308, 2443.987 1500.379 L 2456 1499.700 2455.994 1505.100 C 2455.990 1508.070, 2454.641 1539.525, 2452.996 1575 C 2451.351 1610.475, 2450.004 1641.152, 2450.002 1643.170 L 2450 1646.841 2443.250 1647.495 C 2371.660 1654.436, 2309.245 1685.824, 2262.722 1738.281 C 2231.707 1773.251, 2208.803 1819.589, 2199.097 1867 C 2188.752 1917.534, 2191.059 1978.912, 2205.079 2026.104 C 2216.837 2065.684, 2238.452 2100.929, 2267.048 2127.154 C 2285.500 2144.075, 2295.858 2150.300, 2312 2154.167 C 2324.161 2157.081, 2344.100 2156.429, 2355.278 2152.753 C 2374.970 2146.276, 2389.951 2132.491, 2399.084 2112.446 C 2402.375 2105.223, 2411.258 2078.690, 2414.092 2067.620 C 2424.162 2028.281, 2432.678 1962.439, 2441.462 1856 C 2452.249 1725.290, 2456.055 1662.496, 2461.980 1517.500 C 2466.640 1403.445, 2473.776 1189.235, 2475.505 1111.500 C 2475.824 1097.200, 2476.317 1083.588, 2476.603 1081.250 C 2477.080 1077.349, 2477.360 1077, 2480.016 1077 C 2482.515 1077, 2482.975 1077.443, 2483.389 1080.250 C 2483.652 1082.037, 2484.820 1116.800, 2485.984 1157.500 C 2492.977 1402.095, 2502.653 1642.932, 2509.005 1730.500 C 2511.824 1769.370, 2519.215 1864.393, 2520.478 1878 C 2521.269 1886.525, 2522.634 1901.375, 2523.512 1911 C 2530.367 1986.201, 2538.437 2040.983, 2547.542 2074.136 C 2556.558 2106.967, 2564.666 2123.839, 2577.468 2136.411 C 2602.022 2160.526, 2643.916 2163.641, 2673.500 2143.553 C 2691.224 2131.518, 2711.324 2110.978, 2724.834 2091.094 C 2747.925 2057.112, 2761.416 2017.753, 2766.470 1969.622 C 2768.486 1950.427, 2768.478 1913.709, 2766.455 1896 C 2759.058 1831.262, 2732.450 1773.529, 2689.595 1729.230 C 2645.439 1683.587, 2589.787 1656.315, 2524 1648.083 L 2510.500 1646.394 2510.251 1642.447 C 2509.277 1627.015, 2504.041 1500.625, 2504.363 1500.304 C 2504.981 1499.686, 2533.004 1501.869, 2546.500 1503.588 C 2561.851 1505.542, 2580.766 1509.200, 2598.476 1513.638 C 2677.474 1533.432, 2752.769 1579.201, 2806.360 1640 C 2811.935 1646.325, 2816.758 1651.725, 2817.079 1652 C 2818.850 1653.521, 2837.718 1679.047, 2843.783 1688.128 C 2905.310 1780.251, 2929.353 1895.830, 2910.387 2008.304 C 2900.512 2066.861, 2876.510 2126.325, 2841.992 2177.750 L 2835.112 2188 3008.576 2188 L 3182.039 2188 3177.146 2178.750 C 3174.455 2173.662, 3165.165 2155.775, 3156.502 2139 C 3147.839 2122.225, 3138.158 2103.550, 3134.989 2097.500 C 3131.820 2091.450, 3120.574 2069.850, 3109.998 2049.500 C 3099.421 2029.150, 3087.719 2006.650, 3083.993 1999.500 C 3080.267 1992.350, 3070.809 1974.125, 3062.976 1959 C 3046.725 1927.619, 3040.369 1915.373, 3022.492 1881 C 3004.699 1846.788, 2998.172 1834.226, 2983.004 1805 C 2968.509 1777.071, 2959.069 1758.907, 2949.482 1740.500 C 2946.045 1733.900, 2937.053 1716.575, 2929.500 1702 C 2921.947 1687.425, 2912.944 1670.100, 2909.495 1663.500 C 2906.045 1656.900, 2891.196 1628.325, 2876.496 1600 C 2841.535 1532.633, 2836.937 1523.776, 2829.513 1509.500 C 2826.081 1502.900, 2819.778 1490.750, 2815.506 1482.500 C 2811.234 1474.250, 2805.380 1463, 2802.497 1457.500 C 2793.067 1439.509, 2784.618 1423.258, 2756.485 1369 C 2724.672 1307.642, 2719.917 1298.489, 2682.987 1227.500 C 2679.267 1220.350, 2667.125 1196.950, 2656.004 1175.500 C 2644.883 1154.050, 2632.734 1130.650, 2629.007 1123.500 C 2625.280 1116.350, 2616.276 1099.025, 2608.998 1085 C 2601.719 1070.975, 2592.947 1054.100, 2589.503 1047.500 C 2577.574 1024.641, 2557.117 985.254, 2529.512 932 C 2484.043 844.281, 2480.212 837, 2479.537 837 C 2479.359 837, 2475.347 844.538, 2470.622 853.750" stroke="none" fill="#0054A6" fill-rule="evenodd"/></svg>
